<svg width="48" height="48" viewBox="0 0 48 48" fill="none" xmlns="http://www.w3.org/2000/svg">
<path d="M8.28293 1.25879C6.70244 1.87355 5.36585 2.69323 4.02927 4.03009C2.69268 5.35719 1.87317 6.7038 1.25854 8.27485C0.663415 9.79711 0.263415 11.5438 0.146341 14.1004C0.0292683 16.657 0 17.4767 0 23.9951C0 30.5135 0.0292683 31.3332 0.146341 33.8898C0.263415 36.4464 0.673171 38.1931 1.25854 39.7154C1.87317 41.2962 2.69268 42.6331 4.02927 43.9699C5.36585 45.3068 6.70244 46.1264 8.28293 46.7412C9.80488 47.3365 11.5512 47.7365 14.1073 47.8536C16.6634 47.9707 17.4829 48 24 48C30.5171 48 31.3366 47.9707 33.8927 47.8536C36.4488 47.7365 38.1951 47.3267 39.7171 46.7412C41.2976 46.1264 42.6341 45.3068 43.9707 43.9699C45.3073 42.6331 46.1268 41.2962 46.7415 39.7154C47.3366 38.1931 47.7366 36.4464 47.8537 33.8898C47.9707 31.3332 48 30.5135 48 23.9951C48 17.4767 47.9707 16.657 47.8537 14.1004C47.7366 11.5438 47.3268 9.79711 46.7415 8.27485C46.1268 6.7038 45.3073 5.35719 43.9805 4.03009C42.6439 2.69323 41.3073 1.87355 39.7268 1.25879C38.2049 0.663549 36.4585 0.263468 33.9024 0.146371C31.3463 0.0292742 30.5268 0 24.0098 0C17.4927 0 16.6732 0.0292742 14.1171 0.146371C11.5512 0.25371 9.80488 0.663549 8.28293 1.25879ZM33.6976 4.45944C36.039 4.56678 37.3073 4.95711 38.1561 5.28888C39.278 5.72799 40.078 6.24517 40.9171 7.08437C41.7561 7.92356 42.2732 8.72372 42.7122 9.8459C43.0439 10.6949 43.4341 11.9634 43.5415 14.3053C43.6585 16.8327 43.678 17.5938 43.678 24.0049C43.678 30.4159 43.6488 31.1771 43.5415 33.7044C43.4341 36.0464 43.0439 37.3149 42.7122 38.1639C42.2732 39.286 41.7561 40.0862 40.9171 40.9254C40.078 41.7646 39.278 42.2818 38.1561 42.7209C37.3073 43.0527 36.039 43.443 33.6976 43.5503C31.1707 43.6674 30.4098 43.6869 24 43.6869C17.5902 43.6869 16.8293 43.6577 14.3024 43.5503C11.961 43.443 10.6927 43.0527 9.8439 42.7209C8.72195 42.2818 7.92195 41.7646 7.08293 40.9254C6.2439 40.0862 5.72683 39.286 5.2878 38.1639C4.9561 37.3149 4.56585 36.0464 4.45854 33.7044C4.34146 31.1771 4.32195 30.4159 4.32195 24.0049C4.32195 17.5938 4.35122 16.8327 4.45854 14.3053C4.56585 11.9634 4.9561 10.6949 5.2878 9.8459C5.72683 8.72372 6.2439 7.92356 7.08293 7.08437C7.92195 6.24517 8.72195 5.72799 9.8439 5.28888C10.6927 4.95711 11.961 4.56678 14.3024 4.45944C16.8293 4.34235 17.5902 4.32283 24 4.32283C30.4098 4.32283 31.1707 4.34235 33.6976 4.45944Z" fill="url(#paint0_radial)"/>
<path d="M11.6777 24.005C11.6777 30.8162 17.1997 36.3295 23.9997 36.3295C30.7997 36.3295 36.3217 30.8064 36.3217 24.005C36.3217 17.2036 30.8095 11.6805 23.9997 11.6805C17.1899 11.6805 11.6777 17.1939 11.6777 24.005ZM31.9997 24.005C31.9997 28.4254 28.4192 32.0066 23.9997 32.0066C19.5802 32.0066 15.9997 28.4254 15.9997 24.005C15.9997 19.5846 19.5802 16.0034 23.9997 16.0034C28.4192 16.0034 31.9997 19.5846 31.9997 24.005Z" fill="url(#paint1_radial)"/>
<path d="M36.819 14.0712C38.4085 14.0712 39.697 12.7824 39.697 11.1926C39.697 9.60277 38.4085 8.31396 36.819 8.31396C35.2295 8.31396 33.9409 9.60277 33.9409 11.1926C33.9409 12.7824 35.2295 14.0712 36.819 14.0712Z" fill="#654C9F"/>
<defs>
<radialGradient id="paint0_radial" cx="0" cy="0" r="1" gradientUnits="userSpaceOnUse" gradientTransform="translate(0.873354 43.6054) rotate(-3.0007) scale(69.3965 58.9983)">
<stop stop-color="#FED576"/>
<stop offset="0.2634" stop-color="#F47133"/>
<stop offset="0.6091" stop-color="#BC3081"/>
<stop offset="1" stop-color="#4C63D2"/>
</radialGradient>
<radialGradient id="paint1_radial" cx="0" cy="0" r="1" gradientUnits="userSpaceOnUse" gradientTransform="translate(12.1247 34.0692) rotate(-3.0007) scale(35.6361 30.2964)">
<stop stop-color="#FED576"/>
<stop offset="0.2634" stop-color="#F47133"/>
<stop offset="0.6091" stop-color="#BC3081"/>
<stop offset="1" stop-color="#4C63D2"/>
</radialGradient>
</defs>
</svg>
