<svg width="391" height="143" viewBox="0 0 391 143" fill="none" xmlns="http://www.w3.org/2000/svg">
<path d="M94.015 127H105.237L85.676 104.773L103.873 83.6H93.023L78.67 101.177H74.578V83.6H65.929V127H74.578V109.144H78.577L94.015 127ZM137.596 82.794C124.235 82.794 114.811 92.342 114.811 105.3C114.811 118.258 124.235 127.806 137.596 127.806C150.957 127.806 160.412 118.258 160.412 105.3C160.412 92.342 150.957 82.794 137.596 82.794ZM137.596 91.102C145.594 91.102 151.36 96.868 151.36 105.3C151.36 113.732 145.594 119.498 137.596 119.498C129.629 119.498 123.832 113.732 123.832 105.3C123.832 96.868 129.629 91.102 137.596 91.102ZM202.457 127H213.679L194.118 104.773L212.315 83.6H201.465L187.112 101.177H183.02V83.6H174.371V127H183.02V109.144H187.019L202.457 127ZM257.756 119.064H233.979V109.082H256.423V101.146H233.979V91.536H257.508V83.6H225.33V127H257.756V119.064ZM306.863 87.475C301.407 84.22 296.354 82.856 290.278 82.856C281.04 82.856 272.98 87.568 272.98 96.62C272.98 104.463 278.56 107.842 286.217 109.051L288.976 109.485C295.021 110.446 298.183 111.562 298.183 114.569C298.183 117.917 294.463 119.808 289.658 119.808C284.078 119.808 278.963 117.638 275.832 115.127L271.337 122.102C275.987 125.853 283.055 127.775 289.627 127.775C298.958 127.775 307.39 123.218 307.39 113.639C307.39 106.075 301.314 102.758 293.564 101.487L291.115 101.084C285.907 100.216 282.156 99.255 282.156 96.062C282.156 92.776 285.597 90.854 290.464 90.854C295.207 90.854 299.361 92.435 302.771 94.543L306.863 87.475ZM330.749 83.6H322.1V127H330.749V109.144H351.643V127H360.292V83.6H351.643V101.084H330.749V83.6ZM385.644 83.6H376.995V127H385.644V83.6Z" fill="black"/>
<path d="M36.418 38.724C36.418 43.25 31.706 46.97 27.738 48.21C25.506 48.954 23.212 49.512 20.856 49.698C19.74 49.822 18.624 49.822 17.508 49.946C16.144 50.132 14.718 50.504 13.354 50.504C12.982 50.504 12.3 50.504 12.3 50.07C12.3 49.822 12.424 49.636 12.548 49.45C13.168 48.768 25.754 44.552 27.552 44.056C29.288 43.56 35.488 42.072 35.488 39.654C35.488 39.282 35.178 39.096 34.868 39.096C34.558 39.096 34.248 39.22 34 39.344C32.388 39.964 21.538 43.064 20.298 43.064C19.802 43.064 19.554 42.878 19.554 42.32C19.554 40.956 20.298 38.91 20.546 37.546C20.918 35.934 23.026 25.518 23.708 24.898C24.204 24.898 24.638 25.146 25.01 25.332C27.614 26.696 30.28 29.052 32.264 31.16C34.062 33.144 36.418 35.872 36.418 38.724ZM39.58 38.786C39.58 31.842 31.148 25.642 25.878 22.17C25.444 21.86 24.452 21.364 24.452 20.682V20.062C24.452 19.318 24.328 18.512 23.274 18.512C22.034 18.512 21.972 19.752 21.104 19.752C20.112 19.752 17.322 18.388 16.082 17.892C14.47 17.272 12.858 16.59 11.246 15.908C9.696 15.226 3.372 12.126 2.008 12.126C1.326 12.126 0.582 12.498 0.582 13.304C0.582 14.11 1.388 15.412 2.256 15.412H2.566C3.372 15.412 7.03 17.21 7.774 17.52C9.882 18.388 19.74 22.232 20.422 23.286C20.484 23.348 20.484 23.534 20.484 23.596C20.484 24.588 19.554 27.502 19.306 28.556L18.19 32.896C17.818 34.508 15.338 45.048 13.974 45.358C11.37 45.978 9.882 46.412 7.65 48.086C7.154 48.52 6.596 48.83 6.038 49.14C4.736 49.698 3.682 49.698 3.682 51.372C3.682 53.356 7.526 53.356 8.766 53.356C10.006 53.356 11.246 53.294 12.486 53.17L17.136 53.046C21.538 52.922 25.878 51.992 29.908 50.256C35.054 48.086 39.58 44.8 39.58 38.786ZM52.1936 36.616C52.1936 37.298 51.7596 38.228 51.3876 38.848C50.8296 39.778 47.9156 42.568 46.8616 42.568C46.6136 42.568 46.6136 42.382 46.6136 42.196C46.6136 39.778 48.1016 37.856 49.9616 36.678C50.3956 36.368 51.0776 35.934 51.6356 35.934C52.0076 35.934 52.1936 36.244 52.1936 36.616ZM63.6016 44.614C63.6016 44.304 63.4156 44.118 63.0436 44.118C62.7956 44.118 62.5476 44.242 62.2376 44.304C61.1836 44.738 60.1916 45.358 59.1376 45.792C57.3396 46.598 55.5416 47.342 53.7436 47.9C52.5036 48.334 51.2016 48.644 49.8996 48.644C48.5356 48.644 46.9236 48.21 46.9236 46.598C46.9236 45.792 49.5276 44.428 50.0856 44.056C53.3096 41.886 53.9916 41.08 54.8596 37.36C55.0456 36.678 55.1076 36.058 55.1076 35.376C55.1076 34.198 54.6736 32.09 53.1236 32.09C52.8136 32.09 52.6276 32.152 52.3796 32.214C51.5736 32.586 50.8296 32.71 50.0236 32.896C48.1016 33.454 46.8616 34.446 45.4976 35.934C43.9476 37.67 43.5756 39.592 42.9556 41.824C42.5836 43.25 42.2736 44.738 42.2736 46.226C42.2736 50.07 45.0016 51.992 48.7216 51.992C52.4416 51.992 59.1996 49.016 62.1756 46.66C62.7336 46.226 63.6016 45.42 63.6016 44.614ZM72.6502 41.08C72.6502 42.32 71.9062 44.056 71.3482 45.172C70.2322 47.156 70.4182 48.024 67.8142 48.024L66.7602 48.086C65.8302 48.086 64.1562 47.962 64.1562 46.846C64.1562 46.66 64.2182 46.536 64.2182 46.412C64.4662 45.544 68.3102 43.25 69.0542 42.754C69.6742 42.382 71.7822 40.708 72.4022 40.708C72.6502 40.708 72.6502 40.894 72.6502 41.08ZM87.7162 44.552C87.7162 44.242 87.5302 43.994 87.1582 43.994C86.6622 43.994 82.0122 46.35 80.7102 46.784C79.2222 47.218 76.7422 47.9 75.1922 47.9C74.8202 47.9 74.1382 47.838 74.1382 47.28C74.1382 46.908 74.4482 46.35 74.5722 45.978L75.5642 43.746C76.1842 42.196 76.6802 40.646 77.1142 39.034C77.4242 38.042 77.7342 36.926 77.7342 35.934C77.7342 34.88 77.1142 34.322 76.1222 34.322C74.7582 34.322 72.0302 36.864 70.9142 37.67C68.3722 39.592 65.5822 41.328 62.9782 43.25C61.7382 44.18 60.4362 44.986 59.0722 45.73C58.6382 45.978 57.0882 46.722 56.7162 47.032C56.5302 47.218 56.2822 47.466 56.2822 47.776C56.2822 48.396 57.5222 48.458 57.8942 48.458C58.6382 48.458 59.5682 48.086 59.9402 48.086C60.1882 48.086 60.4362 49.264 60.4982 49.512C61.3042 51.372 65.6442 51.682 67.3182 51.682H68.8062C74.2622 51.31 79.7802 50.752 84.5542 47.838C85.4222 47.342 87.7162 45.792 87.7162 44.552ZM108.526 44.862C108.526 44.676 108.464 44.18 108.154 44.18C107.596 44.18 102.388 46.722 101.396 47.094C99.1644 47.962 95.1964 49.636 92.9644 49.636C91.7864 49.636 91.4144 49.14 91.4144 48.024C91.4144 46.04 92.7164 42.692 93.6464 40.956C94.1424 39.964 94.8244 38.848 94.8244 37.732C94.8244 36.802 94.0184 35.562 93.0264 35.562C91.9724 35.562 90.5464 38.352 90.0504 39.158C89.1204 40.646 88.4384 42.072 87.0744 43.188C85.9584 44.242 84.6564 45.048 83.3544 45.792C82.8584 46.04 81.1224 46.784 80.8124 47.032C80.6264 47.218 80.3784 47.466 80.3784 47.776C80.3784 48.334 81.5564 48.458 81.9284 48.458C84.0984 48.458 87.2604 46.288 87.5704 46.288C87.8804 46.288 87.8804 47.28 87.8804 47.466C88.0044 48.892 88.1284 50.256 88.6864 51.62C89.1204 52.674 90.2984 52.922 91.4144 52.922C94.8864 52.922 100.652 50.256 103.876 48.706C105.054 48.086 108.526 46.412 108.526 44.862ZM100.342 20.186C100.342 18.884 98.3584 17.396 97.0564 17.396C96.0024 17.396 95.2584 18.636 95.2584 19.628C95.2584 21.054 96.8084 21.922 98.1104 21.922C99.0404 21.922 100.342 21.364 100.342 20.186ZM116.273 62.532C116.273 65.756 115.963 70.282 114.103 73.072C113.607 73.754 112.243 75.8 111.251 75.8C110.073 75.8 110.011 72.576 110.011 71.832C110.011 70.406 110.445 68.98 110.879 67.616C111.251 66.686 111.623 65.818 112.057 64.95C112.429 64.206 115.219 59.122 116.087 59.122C116.149 59.122 116.211 59.184 116.211 59.308V59.618C116.211 60.548 116.273 61.54 116.273 62.532ZM119.807 36.864C119.745 39.716 118.319 42.94 116.211 44.862C115.219 45.792 112.987 47.9 111.561 47.9C111.127 47.9 110.259 47.714 110.259 47.156C110.259 45.296 117.947 36.306 119.497 36.306C119.807 36.306 119.807 36.616 119.807 36.864ZM132.579 44.862C132.579 44.614 132.455 44.242 132.207 44.242C132.145 44.242 125.263 47.156 124.953 47.28C124.519 47.466 120.551 49.698 120.427 49.698C120.241 49.698 120.241 49.45 120.241 49.326C120.241 48.148 120.923 47.032 121.171 45.916C121.667 43.87 122.907 42.072 123.465 40.026C123.651 39.158 124.085 38.166 124.085 37.236C124.085 35.066 122.783 34.57 122.783 33.764C122.783 33.64 122.907 33.64 122.907 33.64C123.651 33.64 124.457 32.4 124.457 31.718C124.457 30.664 123.341 30.168 122.411 30.168C121.605 30.168 120.923 30.478 120.303 30.974C117.141 33.454 113.111 37.36 110.507 40.336C108.647 42.506 105.981 44.924 105.981 48.024C105.981 50.07 106.601 51.372 108.833 51.372C111.499 51.372 116.087 48.954 116.087 48.954C116.273 48.954 116.273 49.512 116.273 49.822C116.273 49.946 116.273 50.07 116.273 50.07C116.273 51 116.211 51.992 116.087 52.922C115.963 53.976 113.421 56.766 112.739 57.696L111.003 60.238C109.701 62.408 108.771 64.702 108.027 67.12C107.531 68.918 107.221 70.84 107.221 72.762C107.221 75.366 108.089 78.776 111.251 78.776C112.739 78.776 114.289 77.97 115.281 76.978C119.125 73.32 119.621 65.322 119.745 57.51C119.745 56.704 119.745 55.96 119.869 55.402C120.179 53.79 123.713 50.938 125.139 50.194L130.781 47.032C131.587 46.598 132.579 45.854 132.579 44.862ZM164.987 44.862C164.987 44.614 164.925 44.428 164.801 44.242C163.933 44.242 161.887 45.358 160.709 45.916C157.113 47.466 156.121 47.776 152.091 48.396C151.781 48.458 151.533 48.52 151.223 48.52C150.293 48.52 149.673 48.148 149.673 47.156C149.673 45.358 151.037 43.808 151.037 41.948C151.037 40.832 150.603 39.344 149.239 39.344C146.945 39.344 139.877 46.04 139.071 46.04C138.885 46.04 138.885 45.73 138.885 45.668C138.885 43.87 141.985 38.724 141.985 36.306C141.985 35.314 141.117 35.004 140.249 35.004C139.071 35.004 135.723 39.468 134.855 40.398C133.987 41.39 133.057 42.32 132.003 43.188C130.825 44.18 129.523 44.986 128.221 45.73C127.725 45.978 126.051 46.784 125.741 47.032C125.555 47.218 125.307 47.466 125.307 47.776C125.307 48.334 126.485 48.458 126.857 48.458C129.895 48.458 133.925 45.048 134.359 45.048C134.855 45.048 134.855 46.412 134.855 46.722C134.855 47.962 134.669 49.264 134.669 50.504C134.669 51.434 134.731 52.922 135.971 52.922C137.335 52.922 139.009 51.124 139.815 50.132C140.559 49.14 143.535 46.04 144.837 46.04C144.961 46.04 145.085 46.102 145.147 46.226C145.891 47.466 144.465 52.178 149.177 52.178C149.487 52.178 149.735 52.178 149.983 52.116C153.703 51.744 157.113 50.504 160.337 48.706C161.453 48.086 164.987 46.288 164.987 44.862ZM171.895 36.616C171.895 37.298 171.461 38.228 171.089 38.848C170.531 39.778 167.617 42.568 166.563 42.568C166.315 42.568 166.315 42.382 166.315 42.196C166.315 39.778 167.803 37.856 169.663 36.678C170.097 36.368 170.779 35.934 171.337 35.934C171.709 35.934 171.895 36.244 171.895 36.616ZM183.303 44.614C183.303 44.304 183.117 44.118 182.745 44.118C182.497 44.118 182.249 44.242 181.939 44.304C180.885 44.738 179.893 45.358 178.839 45.792C177.041 46.598 175.243 47.342 173.445 47.9C172.205 48.334 170.903 48.644 169.601 48.644C168.237 48.644 166.625 48.21 166.625 46.598C166.625 45.792 169.229 44.428 169.787 44.056C173.011 41.886 173.693 41.08 174.561 37.36C174.747 36.678 174.809 36.058 174.809 35.376C174.809 34.198 174.375 32.09 172.825 32.09C172.515 32.09 172.329 32.152 172.081 32.214C171.275 32.586 170.531 32.71 169.725 32.896C167.803 33.454 166.563 34.446 165.199 35.934C163.649 37.67 163.277 39.592 162.657 41.824C162.285 43.25 161.975 44.738 161.975 46.226C161.975 50.07 164.703 51.992 168.423 51.992C172.143 51.992 178.901 49.016 181.877 46.66C182.435 46.226 183.303 45.42 183.303 44.614ZM207.355 45.11C207.355 44.924 207.293 44.676 207.169 44.552C206.425 44.552 205.743 44.8 205.185 45.048C202.147 46.226 197.001 49.016 195.079 49.016C193.963 49.016 193.777 48.086 193.777 47.156C193.777 45.854 194.087 44.428 194.459 43.188C194.645 42.444 194.893 41.824 195.327 41.142C195.575 40.77 197.001 39.034 197.001 38.724C197.001 37.608 195.823 36.12 194.707 36.12C194.025 36.12 193.343 36.43 192.661 36.43C191.793 36.43 191.669 36.182 191.421 35.5C190.739 33.764 191.917 32.214 189.127 32.214C187.081 32.214 187.267 34.88 187.019 36.306C186.585 38.352 185.593 40.15 184.167 41.638C182.865 43.002 181.005 44.614 178.835 45.792C178.401 46.04 177.285 46.536 177.099 46.97C177.037 47.094 177.037 47.218 177.037 47.342C177.037 47.962 177.843 48.086 178.339 48.086C181.253 48.086 184.663 44.8 188.321 41.452C189.127 40.646 189.747 39.468 191.049 39.406C191.545 39.406 191.793 39.53 191.793 39.902C191.793 40.646 190.987 42.072 190.801 42.94C190.491 44.304 190.367 45.73 190.367 47.156C190.367 49.388 190.925 52.302 193.715 52.302C194.459 52.302 195.885 51.93 196.567 51.682C198.613 50.938 207.355 47.404 207.355 45.11Z" fill="black"/>
</svg>
